<?xml version="1.0" standalone="no"?><!DOCTYPE svg PUBLIC "-//W3C//DTD SVG 1.1//EN" "http://www.w3.org/Graphics/SVG/1.1/DTD/svg11.dtd"><svg t="1572096079416" class="icon" viewBox="0 0 1024 1024" version="1.1" xmlns="http://www.w3.org/2000/svg" p-id="2646" width="16" height="16" xmlns:xlink="http://www.w3.org/1999/xlink"><defs><style type="text/css"></style></defs><path d="M277.850112 552.768512z m457.480192-180.352z m-144.324608-136.30464z m236.7744 64.176128c28.440576 38.782976 31.732736 57.58464 31.732736 68.39808v469.330944c0 33.18784-27.031552 60.169216-60.173312 60.169216h-575.06816c-33.189888 0-60.172288-26.984448-60.172288-60.169216V188.17536c0-33.18784 26.983424-60.17024 60.172288-60.17024h394.559488c10.764288 0 29.565952 3.290112 68.395008 31.730688 22.752256 16.68608 49.408 40.00256 74.978304 65.575936 25.573376 25.524224 48.843776 52.17792 65.575936 74.976256z m-121.161728-40.943616v-0.001024h-0.04608c-23.079936-23.077888-43.906048-41.178112-61.205504-54.575104v115.781632h115.827712c-13.348864-17.30048-31.446016-38.07744-54.576128-61.205504z m94.957568 565.339136V374.610944h-185.11872c-12.755968 0-23.079936-10.370048-23.079936-23.08096V189.964288H235.62752c-6.268928 0-11.542528 5.31968-11.542528 11.541504v623.178752c0 6.267904 5.2736 11.54048 11.542528 11.54048h554.405888c11.758592-0.001024 11.542528-11.541504 11.542528-11.541504z m-88.235008-51.782656L692.1216 794.112c-5.11488 5.118976-13.413376 5.118976-18.532352 0L537.0112 657.544192c-27.420672 19.697664-55.780352 27.0592-92.120064 27.0592-92.280832 0-167.095296-74.80832-167.095296-167.090176 0-92.276736 74.81344-167.0912 167.095296-167.0912 92.288 0 167.099392 74.814464 167.099392 167.0912 0 39.401472-11.595776 72.532992-34.408448 101.10464l133.709824 138.821632c0 0.001024 11.908096 6.464512 2.049024 15.461376z m-268.450816-155.33056c55.261184 0 100.058112-44.797952 100.058112-100.057088 0-55.26016-44.797952-100.05504-100.058112-100.05504-55.263232 0-100.058112 44.79488-100.058112 100.05504 0 55.259136 44.797952 100.057088 100.058112 100.057088z" fill="#C5C5C5" p-id="2647"></path></svg>