<?xml version="1.0" standalone="no"?><!DOCTYPE svg PUBLIC "-//W3C//DTD SVG 1.1//EN" "http://www.w3.org/Graphics/SVG/1.1/DTD/svg11.dtd"><svg t="1570971184021" class="icon" viewBox="0 0 1024 1024" version="1.1" xmlns="http://www.w3.org/2000/svg" p-id="8743" width="16" height="16" xmlns:xlink="http://www.w3.org/1999/xlink"><defs><style type="text/css"></style></defs><path d="M256 206.506667h225.28a439.466667 439.466667 0 0 1 116.053333 11.946666 203.52 203.52 0 0 1 92.16 56.32 266.666667 266.666667 0 0 1 58.453334 98.986667 450.986667 450.986667 0 0 1 20.053333 144.213333 401.493333 401.493333 0 0 1-18.773333 128A268.8 268.8 0 0 1 682.666667 755.626667a216.32 216.32 0 0 1-85.333334 48.64 372.48 372.48 0 0 1-109.226666 12.8H256z m123.306667 103.253333v404.48H469.333333a336.213333 336.213333 0 0 0 74.666667-5.973333A114.346667 114.346667 0 0 0 597.333333 682.666667a128 128 0 0 0 32.426667-58.88A398.506667 398.506667 0 0 0 640 512a365.226667 365.226667 0 0 0-12.373333-108.8 139.52 139.52 0 0 0-34.986667-59.306667 117.333333 117.333333 0 0 0-57.173333-28.586666 559.786667 559.786667 0 0 0-101.12-5.973334z" p-id="8744" fill="#d81e06"></path></svg>