<?xml version="1.0" standalone="no"?><!DOCTYPE svg PUBLIC "-//W3C//DTD SVG 1.1//EN" "http://www.w3.org/Graphics/SVG/1.1/DTD/svg11.dtd"><svg t="1570785311672" class="icon" viewBox="0 0 1024 1024" version="1.1" xmlns="http://www.w3.org/2000/svg" p-id="1105" width="16" height="16" xmlns:xlink="http://www.w3.org/1999/xlink"><defs><style type="text/css"></style></defs><path d="M477.866667 512.682667h68.266666v332.117333h-68.266666zM341.333333 512.682667h68.266667v332.117333h-68.266667zM614.4 512.682667h68.266667v332.117333H614.4z" fill="#424242" p-id="1106"></path><path d="M203.093333 343.04v583.338667c0 55.637333 41.642667 97.621333 96.597334 97.621333H728.405333c55.296 0 93.525333-41.984 93.525334-97.621333V343.04h-618.837334zM728.405333 951.978667H299.690667c-15.36 0-25.6-10.24-25.6-25.6V404.821333H750.250667v521.557334h0.341333c0 15.701333-6.485333 25.6-22.186667 25.6z" fill="#424242" p-id="1107"></path><path d="M735.914667 331.093333l-40.96-97.962666c-6.144-15.018667-17.066667-27.989333-33.109334-38.570667s-32.085333-16.042667-48.469333-16.042667h-195.925333c-16.384 0-32.426667 5.461333-48.469334 16.042667-16.042667 10.581333-26.965333 23.552-33.109333 38.570667l-40.96 97.962666H136.533333v75.093334H891.562667V331.093333H735.914667z m-327.68-67.242666c2.730667-3.754667 6.485333-5.802667 10.581333-6.826667H613.034667c4.096 0.682667 7.509333 3.072 10.581333 6.826667L651.264 331.093333h-271.018667l27.989334-67.242666z" fill="#424242" p-id="1108"></path></svg>